<svg width="49" height="47" viewBox="0 0 49 47" fill="none" xmlns="http://www.w3.org/2000/svg">
<path d="M46.198 0.495996C46.998 0.495996 47.67 0.527997 48.214 0.591998V1.072C46.23 1.168 44.518 1.648 43.078 2.512C41.446 3.504 40.278 4.432 39.574 5.296C38.902 6.128 38.358 6.816 37.942 7.36C37.558 7.872 37.174 8.496 36.79 9.232C36.182 10.352 35.622 11.456 35.11 12.544L22.246 40.672C20.774 43.84 19.99 45.936 19.894 46.96H19.462L4.918 15.616C4.438 14.72 3.83 14.048 3.094 13.6C2.358 13.12 1.606 12.88 0.838 12.88H0.454V12.4H15.718V12.88H15.334C14.63 12.88 14.102 13.104 13.75 13.552C13.43 13.968 13.27 14.368 13.27 14.752C13.27 15.136 13.334 15.52 13.462 15.904L21.622 35.728L31.558 12.544C33.062 8.992 34.822 6.32 36.838 4.528C39.814 1.84 42.934 0.495996 46.198 0.495996Z" fill="#656565"/>
</svg>
